# AST/ASF file generated using VICON BodyLanguage
# -----------------------------------------------
:version 1.10
:name VICON
:units
  mass 1.0
  length 0.45
  angle deg
:documentation
   .ast/.asf automatically generated from VICON data using
   VICON BodyBuilder and BodyLanguage model FoxedUp or BRILLIANT.MOD
:root
   order TX TY TZ RX RY RZ
   axis XYZ
   position 0 0 0  
   orientation 0 0 0 
:bonedata
  begin
     id 1 
     name lhipjoint
     direction 0.522423 -0.726805 0.445902 
     length 2.25074 
     axis 0 0 0  XYZ
  end
  begin
     id 2 
     name lfemur
     direction 0.34202 -0.939693 0  
     length 6.54609  
     axis 0 0 20  XYZ
    dof rx ry rz
    limits (-160.0 20.0)
           (-70.0 70.0)
           (-60.0 70.0)
  end
  begin
     id 3 
     name ltibia
     direction 0.34202 -0.939693 0   
     length 7.7528   
     axis 0 0 20   XYZ
    dof rx
    limits (-10.0 170.0)
  end
  begin
     id 4 
     name lfoot
     direction 0.143696 -0.394801 0.90746   
     length 1.73269   
     axis -90 7.62852e-016 20   XYZ
    dof rx rz
    limits (-45.0 90.0)
           (-70.0 20.0)
  end
  begin
     id 5 
     name ltoes
     direction 1.53633e-011 -4.21912e-011 1   
     length 0.858383   
     axis -90 7.62852e-016 20   XYZ
    dof rx
    limits (-90.0 20.0)
  end
  begin
     id 6 
     name rhipjoint
     direction -0.515943 -0.73016 0.447961   
     length 2.2404  
     axis 0 0 0  XYZ 
  end
  begin
     id 7 
     name rfemur
     direction -0.34202 -0.939693 0   
     length 6.84377   
     axis 0 0 -20   XYZ
    dof rx ry rz
    limits (-160.0 20.0)
           (-70.0 70.0)
           (-70.0 60.0)
  end
  begin
     id 8 
     name rtibia
     direction -0.34202 -0.939693 0   
     length 7.57596   
     axis 0 0 -20   XYZ
    dof rx
    limits (-10.0 170.0)
 end
 begin
     id 9 
     name rfoot
     direction -0.0999372 -0.274575 0.956358   
     length 1.78783  
     axis -90 -7.62852e-016 -20   XYZ
    dof rx rz
    limits (-45.0 90.0)
           (-20.0 70.0)
  end
  begin
     id 10 
     name rtoes
     direction -1.53535e-011 -4.21895e-011 1   
     length 0.898614   
     axis -90 -7.62852e-016 -20   XYZ
    dof rx
    limits (-90.0 20.0)
  end
  begin
     id 11 
     name lowerback
     direction -0.011775 0.996164 -0.0867116   
     length 1.91499   
     axis 0 0 0   XYZ
    dof rx ry rz
    limits (-20.0 45.0)
           (-30.0 30.0)
           (-30.0 30.0)
  end
  begin
     id 12 
     name upperback
     direction -0.00189771 0.999673 -0.0254833   
     length 1.92213   
     axis 0 0 0   XYZ
    dof rx ry rz
    limits (-20.0 45.0)
           (-30.0 30.0)
           (-30.0 30.0)
  end
  begin
     id 13 
     name thorax
     direction 0.00335995 0.999878 0.0152401   
     length 1.93138   
     axis 0 0 0   XYZ
    dof rx ry rz
    limits (-20.0 45.0)
           (-30.0 30.0)
           (-30.0 30.0)
  end
  begin
     id 14 
     name lowerneck
     direction 0.00233191 0.998509 0.0545404   
     length 1.59408   
     axis 0 0 0   XYZ
    dof rx ry rz
    limits (-20.0 45.0)
           (-30.0 30.0)
           (-30.0 30.0)
  end
  begin
     id 15 
     name upperneck
     direction 0.07881 0.9956 -0.0506934   
     length 1.59344   
     axis 0 0 0   XYZ
    dof rx ry rz
    limits (-20.0 45.0)
           (-30.0 30.0)
           (-30.0 30.0)
  end
  begin
     id 16
     name head
     direction 0.0261681 0.999378 -0.0236299  
     length 1.60935  
     axis 0 0 0   XYZ
    dof rx ry rz
    limits (-20.0 45.0)
           (-30.0 30.0)
           (-30.0 30.0)
  end
  begin
     id 17 
     name lclavicle
     direction 0.96643 0.252035 0.0499195  
     length 3.82153  
     axis 0 0 0   XYZ
    dof ry rz
    limits (-20.0 10.0)
           (0.0 20.0)
  end
  begin
     id 18 
     name lhumerus
     direction 1 -4.48967e-011 -2.01614e-018   
     length 4.87796   
     axis 180 -30 -90   XYZ
    dof rx ry rz
    limits (-60.0 90.0)
           (-90.0 90.0)
           (-90.0 90.0)
  end
  begin
     id 19
     name lradius
     direction 1 -4.48958e-011 3.1409e-027   
     length 3.23169   
     axis 180 -30 -90   XYZ
    dof rx
    limits (-10.0 170.0)
  end
  begin
     id 20
     name lwrist
     direction 1 -4.48924e-011 1.0365e-027   
     length 1.61584   
     axis -2.56395e-016 90 90   XYZ
    dof ry
    limits (-180.0 0.0)
 end
  begin
     id 21 
     name lhand
     direction 1 -4.49055e-011 2.09488e-027   
     length 0.731324   
     axis -1.32723e-015 90 90   XYZ
    dof rx rz
    limits (-90.0 90.0)
           (-45.0 45.0)
  end
  begin
     id 22 
     name lfingers
     direction 1 -4.48935e-011 4.14981e-027   
     length 0.589612   
     axis -2.6545e-015 90 90   XYZ
    dof rx
    limits (0.0 90.0)
  end
  begin
     id 23
     name lthumb
     direction 0.707107 -6.35097e-011 0.707107   
     length 0.846569   
     axis -90 45 5.05613e-014   XYZ
    dof rx rz
    limits (-45.0 45.0)
           (-45.0 45.0)
  end
  begin
     id 24 
     name rclavicle
     direction -0.979337 0.201016 0.0221522   
     length 3.73827  
     axis 0 0 0   XYZ 
    dof ry rz
    limits (-10.0 20.0)
           (-20.0 0.0)
  end
  begin
     id 25 
     name rhumerus
     direction -1 -4.48971e-011 1.65907e-027  
     length 4.9143   
     axis 180 30 90   XYZ
    dof rx ry rz
    limits (-90.0 60.0)
           (-90.0 90.0)
           (-90.0 90.0)
  end
  begin
     id 26 
     name rradius
     direction -1 -4.4894e-011 2.17871e-028   
     length 3.29093   
     axis 180 30 90   XYZ
    dof rx
    limits (-10.0 170.0)
  end
  begin
     id 27 
     name rwrist
     direction -1 -4.48971e-011 1.04038e-027   
     length 1.64546   
     axis -2.56395e-016 -90 -90   XYZ
    dof ry
    limits (-180.0 0.0)
  end
  begin
     id 28
     name rhand
     direction -1 -4.49017e-011 2.08843e-027   
     length 0.54512   
     axis -1.32723e-015 -90 -90   XYZ
    dof rx rz
    limits (-90.0 90.0)
           (-45.0 45.0)
  end
  begin
     id 29
     name rfingers
     direction -1 -4.48918e-011 4.1439e-027   
     length 0.43949   
     axis -2.6545e-015 -90 -90   XYZ
    dof rx
    limits (0.0 90.0)
  end
  begin
     id 30
     name rthumb
     direction -0.707107 -6.35065e-011 0.707107   
     length 0.631022   
     axis -90 -45 -5.05613e-014   XYZ
    dof rx rz
    limits (-45.0 45.0)
           (-45.0 45.0)
  end
:hierarchy
  begin
    root lhipjoint rhipjoint lowerback
    lhipjoint lfemur
    lfemur ltibia
    ltibia lfoot
    lfoot ltoes
    rhipjoint rfemur
    rfemur rtibia
    rtibia rfoot
    rfoot rtoes
    lowerback upperback
    upperback thorax
    thorax lowerneck lclavicle rclavicle
    lowerneck upperneck
    upperneck head
    lclavicle lhumerus
    lhumerus lradius
    lradius lwrist
    lwrist lhand lthumb
    lhand lfingers
    rclavicle rhumerus
    rhumerus rradius
    rradius rwrist
    rwrist rhand rthumb
    rhand rfingers
  end

#!OML:ASF H:\BreakDance\Project 1\Capture day 1\Session 1\Male.ASF
:FULLY-SPECIFIED
:DEGREES
113
root 15.6572 16.5081 1.26527 -106.455 -89.1542 106.071
lowerback -7.66056 -0.369029 -1.00213
upperback 2.65122 -0.328156 -1.03296
thorax 7.08405 -0.184134 -0.565259
lowerneck -2.90382 -0.411965 -1.49922
upperneck 10.8009 -1.00783 3.9589
head 4.08969 -0.443812 1.5422
rclavicle -5.41067e-015 5.56597e-015
rhumerus -28.6116 15.0002 -92.7141
rradius 52.8056
rwrist 15.4453
rhand -34.3576 -29.0253
rfingers 7.12502
rthumb -7.52479 -58.8715
lclavicle -5.41067e-015 5.56597e-015
lhumerus -28.7437 -10.6075 87.5988
lradius 54.9097
lwrist -13.0916
lhand -25.7902 -37.7934
lfingers 7.12502
lthumb 0.748419 -7.81499
rfemur -11.0154 2.61434 12.628
rtibia 33.65
rfoot -18.7468 -19.172
rtoes -14.6592
lfemur -9.50422 2.95595 -11.5572
ltibia 27.949
lfoot -21.8866 18.2088
ltoes -28.0336
114
root 15.6568 16.5075 1.26548 -106.293 -89.1616 105.906
lowerback -7.67286 -0.371841 -1.00281
upperback 2.67781 -0.331812 -1.02651
thorax 7.1195 -0.186237 -0.558979
lowerneck -2.9266 -0.415005 -1.52344
upperneck 10.7954 -1.01303 3.99142
head 4.09314 -0.445608 1.55743
rclavicle 2.99419e-015 -1.98785e-016
rhumerus -28.5653 15.0294 -92.6987
rradius 52.8211
rwrist 15.3484
rhand -34.2591 -29.0763
rfingers 7.12502
rthumb -7.4297 -58.9258
lclavicle 2.99419e-015 -1.98785e-016
lhumerus -28.7105 -10.5974 87.6002
lradius 54.9147
lwrist -13.1165
lhand -25.8425 -37.8107
lfingers 7.12502
lthumb 0.697879 -7.83208
rfemur -11.0083 2.67025 12.6406
rtibia 33.654
rfoot -18.7867 -19.2083
rtoes -14.5529
lfemur -9.50125 2.95727 -11.5518
ltibia 27.9474
lfoot -21.8601 18.2189
ltoes -28.0245
115
root 15.6566 16.5072 1.26571 -105.188 -89.1652 104.8
lowerback -7.69056 -0.377614 -1.0106
upperback 2.7068 -0.338424 -1.02273
thorax 7.16067 -0.190075 -0.551984
lowerneck -2.93183 -0.41792 -1.5488
upperneck 10.7618 -1.01674 4.02485
head 4.08299 -0.446843 1.57283
rclavicle -2.29845e-016 1.39149e-015
rhumerus -28.5085 15.0584 -92.6786
rradius 52.8269
rwrist 15.2606
rhand -34.1843 -29.1236
rfingers 7.12502
rthumb -7.35746 -58.9757
lclavicle -2.29845e-016 1.39149e-015
lhumerus -28.6595 -10.5871 87.599
lradius 54.9031
lwrist -13.1571
lhand -25.8947 -37.8402
lfingers 7.12502
lthumb 0.647403 -7.86148
rfemur -11.0005 2.7157 12.6459
rtibia 33.6575
rfoot -18.8145 -19.2586
rtoes -14.4963
lfemur -9.50726 2.95293 -11.5552
ltibia 27.9468
lfoot -21.8254 18.231
ltoes -28.0977
116
root 15.6566 16.5069 1.26596 -103.484 -89.1618 103.094
lowerback -7.70287 -0.385429 -1.02403
upperback 2.72973 -0.347068 -1.02325
thorax 7.1923 -0.195051 -0.54652
lowerneck -2.90587 -0.422617 -1.57421
upperneck 10.6992 -1.02111 4.05245
head 4.05631 -0.449052 1.58576
rclavicle -1.35422e-015 2.18663e-015
rhumerus -28.4614 15.0814 -92.6629
rradius 52.8237
rwrist 15.1908
rhand -34.1442 -29.1519
rfingers 7.12502
rthumb -7.31873 -59.0053
lclavicle -1.35422e-015 2.18663e-015
lhumerus -28.6145 -10.5752 87.5959
lradius 54.8831
lwrist -13.2034
lhand -25.9368 -37.8774
lfingers 7.12502
lthumb 0.606801 -7.89849
rfemur -10.9909 2.74849 12.6413
rtibia 33.6604
rfoot -18.8274 -19.3139
rtoes -14.4904
lfemur -9.51651 2.94295 -11.5678
ltibia 27.9481
lfoot -21.7976 18.2387
ltoes -28.2188
117
root 15.6568 16.5065 1.26617 -101.608 -89.1583 101.213
lowerback -7.69819 -0.393295 -1.03264
upperback 2.73893 -0.356479 -1.02745
thorax 7.19944 -0.200027 -0.547436
lowerneck -2.8444 -0.424836 -1.59416
upperneck 10.6274 -1.02203 4.07364
head 4.01909 -0.450183 1.59538
rclavicle 1.42255e-015 6.75868e-015
rhumerus -28.4418 15.0928 -92.6591
rradius 52.8143
rwrist 15.1479
rhand -34.132 -29.1587
rfingers 7.12502
rthumb -7.30694 -59.0125
lclavicle 1.42255e-015 6.75868e-015
lhumerus -28.6025 -10.5668 87.5902
lradius 54.87
lwrist -13.2454
lhand -25.9626 -37.9151
lfingers 7.12502
lthumb 0.581843 -7.93614
rfemur -10.977 2.77317 12.6368
rtibia 33.6629
rfoot -18.8281 -19.3712
rtoes -14.5402
lfemur -9.52313 2.93576 -11.5777
ltibia 27.953
lfoot -21.7843 18.2288
ltoes -28.325
118
root 15.6574 16.5057 1.2662 -99.108 -89.1636 98.6999
lowerback -7.67227 -0.405256 -1.03618
upperback 2.73984 -0.372491 -1.02956
thorax 7.18544 -0.208004 -0.54964
lowerneck -2.77134 -0.422266 -1.61322
upperneck 10.5645 -1.01695 4.09114
head 3.98254 -0.448699 1.60389
rclavicle 8.27441e-015 9.34288e-015
rhumerus -28.442 15.1011 -92.6629
rradius 52.7986
rwrist 15.136
rhand -34.1322 -29.1364
rfingers 7.12502
rthumb -7.30721 -58.9902
lclavicle 8.27441e-015 9.34288e-015
lhumerus -28.6157 -10.5556 87.5832
lradius 54.8638
lwrist -13.2822
lhand -25.9767 -37.9544
lfingers 7.12502
lthumb 0.568212 -7.97537
rfemur -10.9498 2.79961 12.6437
rtibia 33.6643
rfoot -18.8259 -19.4374
rtoes -14.6046
lfemur -9.52356 2.93642 -11.5744
ltibia 27.9637
lfoot -21.7801 18.1905
ltoes -28.3894
119
root 15.6582 16.5044 1.26571 -95.301 -89.1773 94.8657
lowerback -7.6254 -0.42628 -1.04656
upperback 2.73919 -0.400722 -1.0253
thorax 7.15777 -0.222422 -0.542739
lowerneck -2.71188 -0.414272 -1.63017
upperneck 10.5241 -1.00517 4.10311
head 3.95641 -0.443898 1.61074
rclavicle -5.71506e-016 5.56597e-015
rhumerus -28.451 15.1171 -92.6701
rradius 52.7758
rwrist 15.1544
rhand -34.1376 -29.0833
rfingers 7.12502
rthumb -7.31241 -58.9369
lclavicle -5.71506e-016 5.56597e-015
lhumerus -28.643 -10.5367 87.577
lradius 54.8625
lwrist -13.3132
lhand -25.9897 -37.9999
lfingers 7.12502
lthumb 0.55569 -8.02087
rfemur -10.8996 2.84519 12.6664
rtibia 33.6635
rfoot -18.8394 -19.5246
rtoes -14.6067
lfemur -9.51622 2.94404 -11.5562
ltibia 27.9819
lfoot -21.777 18.1247
ltoes -28.4166
120
root 15.6588 16.5032 1.26457 -90.2354 -89.1928 89.7625
lowerback -7.56681 -0.455644 -1.06959
upperback 2.74022 -0.439422 -1.01463
thorax 7.1253 -0.242705 -0.523288
lowerneck -2.68108 -0.400572 -1.64454
upperneck 10.5155 -0.986871 4.1124
head 3.94697 -0.435525 1.61699
rclavicle -5.67158e-015 -1.0138e-014
rhumerus -28.4608 15.1417 -92.6785
rradius 52.7437
rwrist 15.2059
rhand -34.1397 -29.0139
rfingers 7.12502
rthumb -7.3144 -58.8674
lclavicle -5.67158e-015 -1.0138e-014
lhumerus -28.6728 -10.5091 87.5745
lradius 54.8595
lwrist -13.3346
lhand -26.0071 -38.0478
lfingers 7.12502
lthumb 0.53888 -8.06869
rfemur -10.8281 2.91206 12.7024
rtibia 33.6595
rfoot -18.8817 -19.6259
rtoes -14.5042
lfemur -9.50364 2.96137 -11.5261
ltibia 28.0073
lfoot -21.7692 18.0365
ltoes -28.3884
121
root 15.6593 16.5023 1.26302 -84.7365 -89.1973 84.2235
lowerback -7.50825 -0.489089 -1.10906
upperback 2.74401 -0.482102 -1.00073
thorax 7.09601 -0.26578 -0.491725
lowerneck -2.68105 -0.381565 -1.65792
upperneck 10.5362 -0.962622 4.12222
head 3.95374 -0.423744 1.62399
rclavicle -7.70291e-016 1.43125e-014
rhumerus -28.4614 15.1766 -92.6835
rradius 52.6952
rwrist 15.2886
rhand -34.1259 -28.949
rfingers 7.12502
rthumb -7.30108 -58.803
lclavicle -7.70291e-016 1.43125e-014
lhumerus -28.6937 -10.4744 87.5794
lradius 54.8467
lwrist -13.3438
lhand -26.033 -38.0881
lfingers 7.12502
lthumb 0.513826 -8.10896
rfemur -10.7477 2.98083 12.736
rtibia 33.6519
rfoot -18.9441 -19.7178
rtoes -14.3244
lfemur -9.49113 2.98974 -11.4977
ltibia 28.038
lfoot -21.7551 17.9366
ltoes -28.3001
122
root 15.6597 16.5019 1.26142 -80.0851 -89.1861 79.537
lowerback -7.45209 -0.520717 -1.16326
upperback 2.74616 -0.520896 -0.986302
thorax 7.06663 -0.287617 -0.450764
lowerneck -2.69797 -0.359194 -1.66822
upperneck 10.5684 -0.933988 4.12872
head 3.96771 -0.409566 1.62972
rclavicle -1.55301e-015 -8.74653e-015
rhumerus -28.4543 15.2185 -92.6831
rradius 52.6294
rwrist 15.3879
rhand -34.1036 -28.9128
rfingers 7.12502
rthumb -7.27958 -58.7676
lclavicle -1.55301e-015 -8.74653e-015
lhumerus -28.7106 -10.4397 87.5949
lradius 54.8289
lwrist -13.3333
lhand -26.062 -38.1107
lfingers 7.12502
lthumb 0.485893 -8.13146
rfemur -10.6742 3.03701 12.7559
rtibia 33.6411
rfoot -19.0022 -19.7913
rtoes -14.1382
lfemur -9.48395 3.03272 -11.4807
ltibia 28.071
lfoot -21.7336 17.8361
ltoes -28.2051
123
root 15.6604 16.502 1.25999 -77.0764 -89.1687 76.5044
lowerback -7.39396 -0.546308 -1.22351
upperback 2.74138 -0.551251 -0.970172
thorax 7.02888 -0.305562 -0.403339
lowerneck -2.72473 -0.334842 -1.67981
upperneck 10.6032 -0.902054 4.13115
head 3.98439 -0.393805 1.63455
rclavicle -5.45415e-015 -5.56597e-015
rhumerus -28.4452 15.2626 -92.677
rradius 52.5507
rwrist 15.4814
rhand -34.0948 -28.9108
rfingers 7.12502
rthumb -7.27109 -58.7658
lclavicle -5.45415e-015 -5.56597e-015
lhumerus -28.7263 -10.4035 87.6226
lradius 54.8071
lwrist -13.3001
lhand -26.0819 -38.1132
lfingers 7.12502
lthumb 0.466648 -8.134
rfemur -10.6206 3.0808 12.7637
rtibia 33.6284
rfoot -19.0462 -19.8438
rtoes -13.963
lfemur -9.48777 3.09346 -11.4724
ltibia 28.1032
lfoot -21.7041 17.7416
ltoes -28.1475
124
root 15.6617 16.5025 1.25887 -76.0931 -89.1534 75.5112
lowerback -7.32983 -0.563016 -1.28424
upperback 2.72799 -0.570031 -0.95241
thorax 6.97858 -0.317787 -0.352191
lowerneck -2.75896 -0.308978 -1.69247
upperneck 10.6384 -0.867195 4.12793
head 4.0025 -0.376732 1.63785
rclavicle -3.34828e-015 -3.97569e-016
rhumerus -28.4306 15.3083 -92.6664
rradius 52.459
rwrist 15.5482
rhand -34.1122 -28.9305
rfingers 7.12502
rthumb -7.28787 -58.785
lclavicle -3.34828e-015 -3.97569e-016
lhumerus -28.7412 -10.3679 87.6596
lradius 54.783
lwrist -13.2472
lhand -26.0818 -38.0951
lfingers 7.12502
lthumb 0.466751 -8.11589
rfemur -10.595 3.11888 12.7613
rtibia 33.6149
rfoot -19.0742 -19.8703
rtoes -13.8123
lfemur -9.50578 3.16984 -11.4706
ltibia 28.1338
lfoot -21.6742 17.6601
ltoes -28.1362
125
root 15.6636 16.5031 1.25805 -76.6639 -89.1453 76.0864
lowerback -7.26208 -0.572239 -1.34185
upperback 2.70779 -0.579464 -0.932039
thorax 6.91897 -0.325237 -0.298686
lowerneck -2.79482 -0.282108 -1.70548
upperneck 10.6678 -0.829895 4.11896
head 4.01874 -0.358642 1.63933
rclavicle -8.27441e-015 -4.57205e-015
rhumerus -28.4074 15.3566 -92.6535
rradius 52.3566
rwrist 15.583
rhand -34.1566 -28.9642
rfingers 7.12502
rthumb -7.33075 -58.8172
lclavicle -8.27441e-015 -4.57205e-015
lhumerus -28.7614 -10.3355 87.7012
lradius 54.7647
lwrist -13.1806
lhand -26.058 -38.0637
lfingers 7.12502
lthumb 0.48975 -8.08451
rfemur -10.5972 3.1575 12.7553
rtibia 33.6021
rfoot -19.0817 -19.883
rtoes -13.737
lfemur -9.53833 3.26118 -11.4694
ltibia 28.1631
lfoot -21.6468 17.5863
ltoes -28.1599
126
root 15.6659 16.5036 1.25747 -77.4202 -89.1469 76.8577
lowerback -7.1932 -0.581041 -1.39502
upperback 2.68274 -0.589281 -0.905104
thorax 6.85362 -0.332713 -0.240785
lowerneck -2.81676 -0.257405 -1.7281
upperneck 10.6803 -0.793995 4.10896
head 4.02633 -0.341818 1.64186
rclavicle 1.21134e-015 0
rhumerus -28.3787 15.4143 -92.6385
rradius 52.2464
rwrist 15.5897
rhand -34.2241 -29.0017
rfingers 7.12502
rthumb -7.39588 -58.8524
lclavicle 1.21134e-015 0
lhumerus -28.7898 -10.2985 87.7471
lradius 54.7504
lwrist -13.1066
lhand -26.0232 -38.0429
lfingers 7.12502
lthumb 0.52332 -8.0638
rfemur -10.6175 3.19783 12.7569
rtibia 33.5919
rfoot -19.0751 -19.8976
rtoes -13.7247
lfemur -9.584 3.35951 -11.4595
ltibia 28.1921
lfoot -21.617 17.5097
ltoes -28.1801
